<svg width="46" height="46" viewBox="0 0 46 46" fill="none" xmlns="http://www.w3.org/2000/svg">
<rect width="46" height="46" fill="#E5E5E5"/>
<g id="playlist" clip-path="url(#clip0_0_1)">
<rect width="1728" height="1117" transform="translate(-347 -432)" fill="black"/>
<rect id="back" x="-347" y="-432" width="1921" height="719" fill="url(#paint0_linear_0_1)"/>
<rect id="Rectangle 17" opacity="0.15" x="-117" y="-30" width="1690" height="585" fill="black"/>
<g id="ic/heart">
<path id="Subtract" opacity="0.7" d="M22.3027 13.4342C19.3015 10.433 14.4355 10.433 11.4342 13.4342V13.4342C8.433 16.4355 8.433 21.3015 11.4342 24.3027L22.3735 35.242C22.9957 35.8641 24.0043 35.8641 24.6265 35.242L35.5658 24.3027C38.567 21.3015 38.567 16.4355 35.5658 13.4342V13.4342C32.5645 10.433 27.6985 10.433 24.6973 13.4342L23.5 14.6315L22.3027 13.4342Z" stroke="white" stroke-linejoin="round"/>
</g>
</g>
<defs>
<linearGradient id="paint0_linear_0_1" x1="613.5" y1="-432" x2="613.5" y2="212.909" gradientUnits="userSpaceOnUse">
<stop stop-color="#90AEA7"/>
<stop offset="1"/>
</linearGradient>
<clipPath id="clip0_0_1">
<rect width="1728" height="1117" fill="white" transform="translate(-347 -432)"/>
</clipPath>
</defs>
</svg>
